<svg width="194" height="194" viewBox="0 0 194 194" fill="none" xmlns="http://www.w3.org/2000/svg">
<mask id="mask0_28_2" style="mask-type:alpha" maskUnits="userSpaceOnUse" x="11" y="7" width="178" height="179">
<path d="M178.351 7.57812L139.513 18.8733L155.238 8.22984C145.31 10.473 132.769 14.8607 117.006 21.9425L91.2784 48.7652L100.41 30.0283C91.5816 34.9389 82.2226 41.3766 73.2046 48.9168L67.2179 73.2805L65.9296 55.2445C57.0253 63.4289 48.6515 72.5227 41.7175 82.109C34.4311 92.15 28.7362 102.759 25.883 113.331L15.2282 106.207C16.183 115.187 19.1347 122.993 23.9771 130.154L11.2383 126.252C14.1331 135.156 18.8657 140.915 26.8682 145.576C22.3857 158.193 20.2828 171.379 18.0245 184.527L24.9964 185.702C33.0822 105.109 90.1417 53.7289 141.711 30.9642L144.325 37.5496C98.2124 58.2 62.3679 93.0594 43.612 143.302C50.4702 143.34 57.1769 142.507 63.3909 140.915L65.2476 117.84L70.2112 138.869C74.3413 137.354 78.1304 135.535 81.5027 133.413L73.6593 116.93L86.0874 130.116C89.1187 127.691 91.6195 124.963 93.514 121.97C105.033 103.972 117.082 86.0875 140.801 71.1207L123.485 64.9824L150.047 65.7781C154.366 63.5805 158.913 60.8902 162.361 58.3516L143.53 56.8359L171.834 50.1672C174.032 47.9695 176.078 45.6582 177.934 43.3469C184.489 35.0337 188.923 26.3795 187.862 18.5096C187.369 14.5727 185.02 10.8708 181.193 8.7982C180.246 8.30562 179.223 7.86988 178.351 7.57812Z" fill="black"/>
</mask>
<g mask="url(#mask0_28_2)">
<rect x="1" width="187" height="194" fill="#D4AF94"/>
</g>
</svg>
